<mxfile host="65bd71144e">
    <diagram id="fRsGXx_FJIlEfKVIVhSV" name="Page-1">
        <mxGraphModel dx="1149" dy="425" grid="1" gridSize="10" guides="1" tooltips="1" connect="1" arrows="1" fold="1" page="1" pageScale="1" pageWidth="827" pageHeight="1169" math="0" shadow="0">
            <root>
                <mxCell id="0"/>
                <mxCell id="1" parent="0"/>
                <mxCell id="5" style="edgeStyle=none;html=1;" edge="1" parent="1" source="2" target="7">
                    <mxGeometry relative="1" as="geometry">
                        <mxPoint x="340" y="170" as="targetPoint"/>
                        <Array as="points">
                            <mxPoint x="240" y="70"/>
                        </Array>
                    </mxGeometry>
                </mxCell>
                <mxCell id="6" value="/GetNextStep" style="edgeLabel;html=1;align=center;verticalAlign=middle;resizable=0;points=[];" vertex="1" connectable="0" parent="5">
                    <mxGeometry x="0.3317" y="3" relative="1" as="geometry">
                        <mxPoint x="-55" y="3" as="offset"/>
                    </mxGeometry>
                </mxCell>
                <mxCell id="2" value="BACK SIB" style="shape=umlLifeline;perimeter=lifelinePerimeter;whiteSpace=wrap;html=1;container=1;collapsible=0;recursiveResize=0;outlineConnect=0;" vertex="1" parent="1">
                    <mxGeometry x="90" width="100" height="360" as="geometry"/>
                </mxCell>
                <mxCell id="12" value="" style="html=1;points=[];perimeter=orthogonalPerimeter;" vertex="1" parent="2">
                    <mxGeometry x="45" y="40" width="10" height="260" as="geometry"/>
                </mxCell>
                <mxCell id="8" style="edgeStyle=none;html=1;" edge="1" parent="1" source="7">
                    <mxGeometry relative="1" as="geometry">
                        <mxPoint x="464" y="370" as="targetPoint"/>
                    </mxGeometry>
                </mxCell>
                <mxCell id="7" value="BACK KF" style="shape=umlLifeline;perimeter=lifelinePerimeter;whiteSpace=wrap;html=1;container=1;collapsible=0;recursiveResize=0;outlineConnect=0;" vertex="1" parent="1">
                    <mxGeometry x="414" width="100" height="330" as="geometry"/>
                </mxCell>
                <mxCell id="10" value="" style="html=1;points=[];perimeter=orthogonalPerimeter;" vertex="1" parent="7">
                    <mxGeometry x="46" y="40" width="10" height="290" as="geometry"/>
                </mxCell>
                <mxCell id="13" style="edgeStyle=none;html=1;" edge="1" parent="1">
                    <mxGeometry relative="1" as="geometry">
                        <mxPoint x="464" y="150" as="targetPoint"/>
                        <mxPoint x="140" y="150" as="sourcePoint"/>
                        <Array as="points">
                            <mxPoint x="240.5" y="150"/>
                        </Array>
                    </mxGeometry>
                </mxCell>
                <mxCell id="14" value="/GetNextStep" style="edgeLabel;html=1;align=center;verticalAlign=middle;resizable=0;points=[];" vertex="1" connectable="0" parent="13">
                    <mxGeometry x="0.3317" y="3" relative="1" as="geometry">
                        <mxPoint x="-55" y="3" as="offset"/>
                    </mxGeometry>
                </mxCell>
                <mxCell id="18" style="edgeStyle=none;html=1;" edge="1" parent="1" source="10" target="2">
                    <mxGeometry relative="1" as="geometry">
                        <Array as="points">
                            <mxPoint x="370" y="170"/>
                        </Array>
                    </mxGeometry>
                </mxCell>
                <mxCell id="19" value="/info" style="edgeLabel;html=1;align=center;verticalAlign=middle;resizable=0;points=[];" vertex="1" connectable="0" parent="18">
                    <mxGeometry x="0.092" y="-2" relative="1" as="geometry">
                        <mxPoint as="offset"/>
                    </mxGeometry>
                </mxCell>
                <mxCell id="21" style="edgeStyle=none;html=1;entryX=-0.4;entryY=0.603;entryDx=0;entryDy=0;entryPerimeter=0;" edge="1" parent="1" source="12" target="10">
                    <mxGeometry relative="1" as="geometry"/>
                </mxCell>
            </root>
        </mxGraphModel>
    </diagram>
</mxfile>